<svg id="Layer_1" data-name="Layer 1" xmlns="http://www.w3.org/2000/svg" viewBox="0 0 343.33 134.02"><defs><style>.cls-1{fill:#fff;}</style></defs><title>watsematter-logo</title><path class="cls-1" d="M408,144.59c1.9-.58,6.13-0.48,8.42-0.18,1.92,0.25,8.52.51,9.34,1.62,3,4.18,14.88,39.5,20.43,59.71,5.63,16.51,10.67,32.83,17.53,51,0.88,2.34,2.62,6.35,2.37,8-0.28,1.92-18.16,8.69-18.71,7.07-1.21-1.83-5.18-12.41-6.65-16.21-2.85-7.36-10.56-30.94-11.63-34.8-0.77-2.78-7.29-23.44-9.73-31.23-3.29-10.49-7.17-20.67-10.2-30.75-6.78,17-12.11,35.21-19.13,53.11-3.45,8.78-6.7,18-9.81,27.15s-8.79,31.38-10.53,32.87c-4.71,1.86-12.77,2.76-13.11,1.89-15.11-35.14-29.8-71.69-46.08-106.33-10.76,35.53-22.64,71.25-30.64,108.13-2.14,2.22-5,1.92-9.06,1.89-2.41,0-4,.4-5.24-0.25-1.48-.76-3.7-8.26-4.51-10.49-2.31-6.35-5.22-12.72-8.08-19.07-3.71-8.26-7.12-16.89-10.69-25.27C235,205.21,226.91,188.7,220,172.69c-0.51.84-5.42,19-7.42,26.68-0.38,1.45-9.89,34.76-11,38.35-0.31,1-8.65,33.58-9.34,35-2.39,3-10.78,5.18-12.64,5.46-4.12-2.35-11.51-18.68-13.79-22.89a115.1,115.1,0,0,1-6.18-13.11c-1.74-4.49-4-8.78-5.94-13.35s-3.55-9.23-5.46-13.83c-7.54-18.2-15.49-36.45-22.56-54.35-0.81-2.06-1.88-3.8-2.85-5.72,0.89-1.33,8.29-4.75,11.21-5.7,1.91-.62,7.72-3.16,9-2.41,1,0.57,2.56,4.38,3.43,6.2,4.6,9.47,8.63,19.3,13.32,28.61,10.88,21.64,18.34,42.41,30,63.22,7.62-28.19,13.29-51.81,22.2-80.5,1.11-3.57,2.25-10.15,4.3-11.67s13.52-4.1,15.25-3.74c2.19,0.45,4.69,8.86,5.66,11.21,5.59,13.54,10.72,25.49,16.35,38.22,8.18,18.49,15.23,34.22,23.16,50.79,8.69-27.52,14.09-50.75,22.46-79,1.18-4,5-18.82,7.18-21.67C309.67,146.73,318,146,322,146c2.17,0,8.78,18.69,10.94,23.33,4.31,9.28,8.3,20.72,12.13,30.33,7.65,19.18,15.52,34.33,23.58,52.59,2.8-8.91,12.09-37.88,15.44-46.48s14.61-38.37,16.74-45C402,157.2,406.11,145.18,408,144.59Z" transform="translate(-122.83 -144.17)"/></svg>